<svg id="_x31_-outline-expand" enable-background="new 0 0 64 64" height="512" viewBox="0 0 64 64" width="512" xmlns="http://www.w3.org/2000/svg"><path d="m17 50c.553 0 1-.447 1-1v-12h3c.553 0 1-.447 1-1v-7c0-2.757-2.243-5-5-5h-.54c.954-1.063 1.54-2.462 1.54-4 0-3.309-2.691-6-6-6s-6 2.691-6 6c0 1.538.586 2.937 1.54 4h-.54c-2.757 0-5 2.243-5 5v7c0 .553.447 1 1 1h3v12c0 .553.447 1 1 1zm-9-30c0-2.206 1.794-4 4-4s4 1.794 4 4-1.794 4-4 4-4-1.794-4-4zm3 17v11h-3v-19h-2v6h-2v-6c0-1.654 1.346-3 3-3h10c1.654 0 3 1.346 3 3v6h-2v-6h-2v19h-3v-11z"/><path d="m57 24h-.54c.954-1.063 1.54-2.462 1.54-4 0-3.309-2.691-6-6-6s-6 2.691-6 6c0 1.538.586 2.937 1.54 4h-.54c-2.757 0-5 2.243-5 5v7c0 .553.447 1 1 1h3v12c0 .553.447 1 1 1h10c.553 0 1-.447 1-1v-12h3c.553 0 1-.447 1-1v-7c0-2.757-2.243-5-5-5zm-9-4c0-2.206 1.794-4 4-4s4 1.794 4 4-1.794 4-4 4-4-1.794-4-4zm12 15h-2v-6h-2v19h-3v-11h-2v11h-3v-19h-2v6h-2v-6c0-1.654 1.346-3 3-3h10c1.654 0 3 1.346 3 3z"/><path d="m51 7v1.586l-2.293-2.293-1.414 1.414 4 4c.195.195.451.293.707.293s.512-.098.707-.293l4-4-1.414-1.414-2.293 2.293v-1.586c0-2.757-2.243-5-5-5h-23v2h23c1.654 0 3 1.346 3 3z"/><path d="m13 7c0-1.654 1.346-3 3-3h7v-2h-7c-2.757 0-5 2.243-5 5v5h2z"/><path d="m13 57v-1.586l2.293 2.293 1.414-1.414-4-4c-.391-.391-1.023-.391-1.414 0l-4 4 1.414 1.414 2.293-2.293v1.586c0 2.757 2.243 5 5 5h19v-2h-19c-1.654 0-3-1.346-3-3z"/><path d="m37 60h2v2h-2z"/><path d="m51 57c0 1.654-1.346 3-3 3h-7v2h7c2.757 0 5-2.243 5-5v-5h-2z"/></svg>