<?xml version="1.0"?>
<svg xmlns="http://www.w3.org/2000/svg" viewBox="0 0 64 64" width="512" height="512"><g id="pancake"><path d="M61,55H57.97A4.924,4.924,0,0,0,59,52a4.994,4.994,0,0,0-2.03-4,5.079,5.079,0,0,0,.57-.47A4.975,4.975,0,0,0,56.97,40a5.079,5.079,0,0,0,.57-.47A4.975,4.975,0,0,0,56.97,32a5.079,5.079,0,0,0,.57-.47A5,5,0,0,0,54,23H42V18a1,1,0,0,0-1-1H36.46a5.924,5.924,0,0,0,.97-6.52A6,6,0,0,0,41,5a1,1,0,0,0-1-1H37a5.979,5.979,0,0,0-4,1.54V2H31V7.09A5.984,5.984,0,0,0,27.54,17H23a1,1,0,0,0-1,1v5H10a5,5,0,0,0-3,9,4.784,4.784,0,0,0-.54.47A4.975,4.975,0,0,0,7.03,40a5.079,5.079,0,0,0-.57.47A4.975,4.975,0,0,0,7.03,48,4.994,4.994,0,0,0,5,52a4.924,4.924,0,0,0,1.03,3H3a1,1,0,0,0-1,1v1a5,5,0,0,0,5,5H57a5,5,0,0,0,5-5V56A1,1,0,0,0,61,55ZM57,44a2.988,2.988,0,0,1-3,3H48.86A4.231,4.231,0,0,0,49,46V41h5A3.009,3.009,0,0,1,57,44Zm0-8a2.988,2.988,0,0,1-3,3H49V33h5A3.009,3.009,0,0,1,57,36ZM37,6h1.87A4,4,0,0,1,35,9H33.13A4,4,0,0,1,37,6ZM31,9.14V12h2V11h2c.15,0,.3-.01.44-.02A4,4,0,1,1,31,9.14ZM24,19H40v4H24ZM7.87,25.88A3.013,3.013,0,0,1,10,25H54a3,3,0,1,1,0,6H48a1,1,0,0,0-1,1V46a2,2,0,0,1-.52,1.34,2.048,2.048,0,0,1-2.97-.01A1.992,1.992,0,0,1,43,46V32a1,1,0,0,0-1-1H38a1,1,0,0,0-1,1v7.5a1.322,1.322,0,0,1-.03.3,1.5,1.5,0,0,1-2.94.02A1.655,1.655,0,0,1,34,39.5V32a1,1,0,0,0-1-1H10a3.005,3.005,0,0,1-2.13-5.12ZM41,33v6H39V33ZM7,36a2.988,2.988,0,0,1,3-3H32v6H10A3.009,3.009,0,0,1,7,36Zm0,8a2.988,2.988,0,0,1,3-3H32.34a3.489,3.489,0,0,0,6.31,0H41v5a4.16,4.16,0,0,0,.14,1H10A3.009,3.009,0,0,1,7,44Zm3,5H42.39a3.906,3.906,0,0,0,5.22,0H54a3,3,0,0,1,0,6H10a3,3,0,0,1,0-6ZM57,60H7a3.009,3.009,0,0,1-3-3H60A3.009,3.009,0,0,1,57,60Z"/></g></svg>
